HIERARCHY
ROOT Hips
{
	OFFSET 0.00000 0.00000 0.00000
	CHANNELS 6 Xposition Yposition Zposition Zrotation Yrotation Xrotation 
	JOINT LHipJoint
	{
		OFFSET 0 0 0
		CHANNELS 3 Zrotation Yrotation Xrotation
		JOINT LeftHip
		{
			OFFSET 1.34019 -1.87553 0.90315
			CHANNELS 3 Zrotation Yrotation Xrotation
			JOINT LeftKnee
			{
				OFFSET 2.55316 -7.01474 0.00000
				CHANNELS 3 Zrotation Yrotation Xrotation
				JOINT LeftAnkle
				{
					OFFSET 2.64657 -7.27139 0.00000
					CHANNELS 3 Zrotation Yrotation Xrotation
					JOINT LeftToe
					{
						OFFSET 0.24207 -0.66507 2.14489
						CHANNELS 3 Zrotation Yrotation Xrotation
						End Site
						{
							OFFSET 0.00000 -0.00000 1.12451
						}
					}
				}
			}
		}
	}
	JOINT RHipJoint
	{
		OFFSET 0 0 0
		CHANNELS 3 Zrotation Yrotation Xrotation
		JOINT RightHip
		{
			OFFSET -1.28320 -1.87553 0.90315
			CHANNELS 3 Zrotation Yrotation Xrotation
			JOINT RightKnee
			{
				OFFSET -2.60484 -7.15674 0.00000
				CHANNELS 3 Zrotation Yrotation Xrotation
				JOINT RightAnkle
				{
					OFFSET -2.60296 -7.15159 0.00000
					CHANNELS 3 Zrotation Yrotation Xrotation
					JOINT RightToe
					{
						OFFSET -0.31082 -0.85398 2.28998
						CHANNELS 3 Zrotation Yrotation Xrotation
						End Site
						{
							OFFSET -0.00000 -0.00000 1.21611
						}
					}
				}
			}
		}
	}
	JOINT lowerback
	{
		OFFSET 0 0 0
		CHANNELS 3 Zrotation Yrotation Xrotation
		JOINT Chest
		{
			OFFSET -0.00160 2.05581 -0.15156
			CHANNELS 3 Zrotation Yrotation Xrotation
			JOINT Chest2
			{
				OFFSET 0.04594 2.06326 -0.01617
				CHANNELS 3 Zrotation Yrotation Xrotation
				JOINT lowerneck
				{
					OFFSET 0 0 0
					CHANNELS 3 Zrotation Yrotation Xrotation
					JOINT Neck
					{
						OFFSET 0.03753 1.73883 0.26751
						CHANNELS 3 Zrotation Yrotation Xrotation
						JOINT Head
						{
							OFFSET -0.09795 1.76129 -0.31794
							CHANNELS 3 Zrotation Yrotation Xrotation
							End Site
							{
								OFFSET -0.03611 1.79987 -0.13846
							}
						}
					}
				}
				JOINT LeftCollar
				{
					OFFSET 0 0 0
					CHANNELS 3 Zrotation Yrotation Xrotation
					JOINT LeftShoulder
					{
						OFFSET 3.30667 1.29205 -0.22445
CHANNELS 3 Zrotation Xrotation Yrotation
						JOINT LeftElbow
						{
OFFSET 0 -4.927850 -0.000000
CHANNELS 3 Zrotation Xrotation Yrotation
							JOINT LeftWrist
							{
OFFSET 0 -3.440520 0.000000
CHANNELS 3 Zrotation Xrotation Yrotation
								JOINT lhand
								{
									OFFSET 0 0 0
CHANNELS 3 Zrotation Xrotation Yrotation
									JOINT LFingers
									{
OFFSET 0 -0.654330 0.000000
CHANNELS 3 Zrotation Xrotation Yrotation
										End Site
										{
OFFSET 0 -0.527530 0.000000
										}
									}
								}
								JOINT LThumb
								{
OFFSET 0 0.000000 0.000000
CHANNELS 3 Zrotation Xrotation Yrotation
									End Site
									{
OFFSET 0 -0.535590 0.535590
									}
								}
							}
						}
					}
				}
				JOINT RightCollar
				{
					OFFSET 0 0 0
					CHANNELS 3 Zrotation Yrotation Xrotation
					JOINT RightShoulder
					{
						OFFSET -3.20032 1.49783 -0.27688
CHANNELS 3 Zrotation Xrotation Yrotation
						JOINT RightElbow
						{
OFFSET 0 -5.091810 -0.000000
CHANNELS 3 Zrotation Xrotation Yrotation
							JOINT RightWrist
							{
OFFSET 0 -3.498650 -0.000000
CHANNELS 3 Zrotation Xrotation Yrotation
								JOINT rhand
								{
									OFFSET 0 0 0
CHANNELS 3 Zrotation Xrotation Yrotation
									JOINT RFingers
									{
OFFSET 0 -0.666410 0.000000
CHANNELS 3 Zrotation Xrotation Yrotation
										End Site
										{
OFFSET 0 -0.537280 0.000000
										}
									}
								}
								JOINT RThumb
								{
OFFSET 0 0.000000 0.000000
CHANNELS 3 Zrotation Xrotation Yrotation
									End Site
									{
OFFSET 0 -0.545480 0.545480
									}
								}
							}
						}
					}
				}
			}
		}
	}
}
MOTION
Frames: 5
Frame Time: 0.008333333333333333
1.526800 17.838400 -28.460500 -0.897400 5.189800 -1.950400 0.000000 0.000000 0.000000 -26.145900 0.363300 -4.358400 1.647700 8.090100 22.988000 0.360500 6.031000 -15.150900 0.075800 -1.775600 -4.885800 0.000000 0.000000 0.000000 8.393900 0.497700 -25.033300 -14.763700 -19.329500 74.523700 -0.010400 -7.020700 5.163100 -0.024900 1.019700 -2.803000 -8.086200 -4.724800 10.077000 5.717600 -6.967600 0.398200 11.557000 -3.333000 -3.517200 9.641300 6.653300 -20.525300 -15.015300 12.671700 37.108700 -6.174200 4.411100 19.772000 0.000000 0.000000 0.000000 -4.561800 4.431400 -6.701200 16.859800 -26.672600 4.024200 14.364200 -4.324300 0.305200 0.000000 0.000000 0.000000 -7.125000 0.000000 0.000000 -9.555200 29.598300 -3.634500 0.000000 0.000000 0.000000 -20.962400 10.414900 30.885100 -22.105300 -33.095800 -6.643200 -8.920000 -8.989700 -2.886500 0.000000 0.000000 0.000000 7.125000 0.000000 -0.000000 13.441900 26.987400 6.034100
1.530204 17.837138 -28.461180 -0.936054 5.153316 -1.915827 0.000000 0.000000 0.000000 -26.133702 0.305763 -4.429596 1.657856 8.113697 23.059859 0.357539 6.142808 -15.208754 0.072933 -1.742186 -4.793635 0.000000 0.000000 0.000000 8.453782 0.557120 -25.159878 -14.777810 -19.333140 74.566447 -0.013036 -6.960712 5.184830 -0.021738 0.951128 -2.614310 -8.071125 -4.707809 10.058219 5.837165 -6.937124 0.507376 11.668785 -3.332293 -3.383847 9.515254 6.946503 -20.839739 -14.833182 12.975786 36.365910 -5.891134 4.524054 19.417426 0.000000 0.000000 0.000000 -4.794007 4.062968 -6.512946 16.722541 -26.490505 3.962825 14.364409 -4.059429 0.396775 0.000000 0.000000 0.000000 -7.125000 0.000000 0.000000 -9.546187 29.505102 -3.652531 0.000000 0.000000 0.000000 -21.160676 9.997627 30.844941 -22.086641 -33.074800 -6.633081 -8.941469 -9.041421 -2.949785 0.000000 0.000000 0.000000 7.125000 0.000000 0.000000 13.418558 26.925070 6.043355
1.533757 17.836064 -28.462610 -0.954482 5.141400 -1.857052 0.000000 0.000000 0.000000 -26.144161 0.221342 -4.516945 1.667313 8.135747 23.127153 0.354729 6.240038 -15.256486 0.070104 -1.707943 -4.699032 0.000000 0.000000 0.000000 8.485622 0.589060 -25.320789 -14.800628 -19.339066 74.635245 -0.015384 -6.909612 5.205743 -0.021035 0.936939 -2.575421 -8.092037 -4.711549 10.038971 5.995554 -6.937555 0.633874 11.846273 -3.350420 -3.214451 9.246238 7.263862 -21.175731 -14.608191 13.341353 35.543955 -5.543980 4.650363 19.022430 0.000000 0.000000 0.000000 -5.119045 3.614241 -6.231628 16.579162 -26.299533 3.899069 14.300299 -3.780963 0.597355 0.000000 0.000000 0.000000 -7.125000 0.000000 0.000000 -9.577021 29.300478 -3.711940 0.000000 0.000000 0.000000 -21.457770 9.475697 30.851506 -22.054348 -33.038341 -6.615401 -8.959331 -9.109208 -3.013087 0.000000 0.000000 0.000000 7.125000 0.000000 0.000000 13.397995 26.862687 6.053856
1.537741 17.834896 -28.464378 -0.949062 5.141493 -1.792752 0.000000 0.000000 0.000000 -26.181864 0.126811 -4.600527 1.675779 8.155346 23.186869 0.351488 6.330088 -15.292918 0.067555 -1.676626 -4.612794 0.000000 0.000000 0.000000 8.487237 0.598130 -25.492398 -14.826385 -19.345779 74.713084 -0.017678 -6.874582 5.235135 -0.023237 0.984481 -2.706065 -8.126194 -4.712083 10.010580 6.144668 -6.935417 0.769270 12.019622 -3.368816 -3.030641 8.850338 7.524297 -21.551258 -14.304417 13.639791 34.782065 -5.164865 4.744945 18.644280 0.000000 0.000000 0.000000 -5.433679 3.138553 -5.957251 16.428218 -26.097757 3.832404 14.189905 -3.505861 0.871115 0.000000 0.000000 0.000000 -7.125000 0.000000 0.000000 -9.636819 29.021133 -3.800718 0.000000 0.000000 0.000000 -21.747618 8.939703 30.832876 -22.018243 -32.997680 -6.595797 -8.974662 -9.166195 -3.043741 0.000000 0.000000 0.000000 7.125000 0.000000 0.000000 13.383065 26.832559 6.056521
1.542087 17.833704 -28.465896 -0.938175 5.142221 -1.732726 0.000000 0.000000 0.000000 -26.226153 0.032814 -4.671513 1.682685 8.171240 23.235294 0.348034 6.415188 -15.322082 0.065131 -1.646947 -4.530997 0.000000 0.000000 0.000000 8.480655 0.594648 -25.661499 -14.855663 -19.353303 74.801612 -0.019048 -6.843886 5.246661 -0.026588 1.052373 -2.892801 -8.112766 -4.748819 9.961374 6.269144 -6.976486 0.882731 12.139375 -3.407933 -2.856367 8.483356 7.697329 -22.018006 -14.158271 13.897388 34.294354 -4.912580 4.802768 18.475881 0.000000 0.000000 0.000000 -5.731505 2.740242 -5.628194 16.293932 -25.917556 3.773531 14.074968 -3.279190 1.108763 0.000000 0.000000 0.000000 -7.125000 0.000000 0.000000 -9.703590 28.778946 -3.884362 0.000000 0.000000 0.000000 -22.034072 8.437109 30.908469 -21.980192 -32.954627 -6.575087 -9.000465 -9.214616 -3.042305 0.000000 0.000000 0.000000 7.125000 0.000000 0.000000 13.363929 26.833971 6.046922
